<svg width="24" height="24" viewBox="0 0 24 24" fill="none" xmlns="http://www.w3.org/2000/svg">
  <!-- Open book shape with musical note -->
  <path d="M2 4c0-1.1.9-2 2-2h5c1.3 0 2.4.8 3 2 .6-1.2 1.7-2 3-2h5c1.1 0 2 .9 2 2v14c0 1.1-.9 2-2 2h-5.5c-.8 0-1.5.7-1.5 1.5 0-.8-.7-1.5-1.5-1.5H4c-1.1 0-2-.9-2-2V4z" stroke="currentColor" stroke-width="1.8" stroke-linecap="round" stroke-linejoin="round"/>
  <path d="M12 2v18" stroke="currentColor" stroke-width="1.8" stroke-linecap="round"/>
  <!-- Musical note on right page -->
  <path d="M16 8v6" stroke="currentColor" stroke-width="1.8" stroke-linecap="round"/>
  <circle cx="14.5" cy="14" r="1.5" stroke="currentColor" stroke-width="1.4" fill="currentColor" opacity="0.6"/>
  <path d="M16 8c1.5 0 3 .5 3 2" stroke="currentColor" stroke-width="1.8" stroke-linecap="round" stroke-linejoin="round"/>
  <!-- Sparkle on left page -->
  <path d="M7 8l.5-1.5L8 8l-.5 1.5L7 8z" fill="currentColor" opacity="0.7"/>
  <path d="M6 11h2" stroke="currentColor" stroke-width="1.2" stroke-linecap="round" opacity="0.5"/>
  <path d="M5.5 13.5h3" stroke="currentColor" stroke-width="1.2" stroke-linecap="round" opacity="0.5"/>
</svg>
