<?xml version="1.0" standalone="no"?>
<!DOCTYPE svg PUBLIC "-//W3C//DTD SVG 20010904//EN"
 "http://www.w3.org/TR/2001/REC-SVG-20010904/DTD/svg10.dtd">
<svg version="1.0" xmlns="http://www.w3.org/2000/svg"
 width="500.000000pt" height="500.000000pt" viewBox="0 0 500.000000 500.000000"
 preserveAspectRatio="xMidYMid meet">

<g transform="translate(0.000000,500.000000) scale(0.100000,-0.100000)"
fill="#000000" stroke="none">
<path d="M2900 2580 l0 -300 50 0 50 0 0 300 0 300 -50 0 -50 0 0 -300z"/>
<path d="M375 2857 c-3 -7 -4 -140 -3 -297 l3 -285 50 0 50 0 3 123 3 122 114
0 115 0 0 50 0 50 -115 0 -115 0 0 75 0 74 138 3 137 3 3 48 3 47 -191 0
c-144 0 -192 -3 -195 -13z"/>
<path d="M1180 2574 l0 -295 48 3 c38 2 46 6 44 21 -4 22 3 22 39 -5 42 -31
138 -32 189 -2 112 65 140 252 54 352 -62 73 -177 93 -246 42 l-28 -21 0 101
0 100 -50 0 -50 0 0 -296z m276 41 c27 -17 54 -74 54 -114 0 -69 -61 -141
-120 -141 -34 0 -78 28 -95 60 -8 16 -15 51 -15 77 0 109 92 170 176 118z"/>
<path d="M2601 2720 c-18 -4 -47 -18 -63 -30 l-30 -22 4 24 c3 21 -1 23 -42
23 l-45 0 -3 -292 -2 -293 50 0 50 0 0 94 0 93 47 -23 c58 -30 106 -30 163 -1
118 59 149 250 59 360 -49 59 -117 84 -188 67z m74 -104 c80 -34 89 -177 13
-230 -47 -33 -133 -11 -156 39 -17 36 -15 110 3 145 16 31 57 59 88 60 10 0
33 -6 52 -14z"/>
<path d="M4045 2723 c-11 -2 -30 -6 -42 -9 -33 -6 -91 -61 -114 -106 -54 -106
-22 -240 75 -303 37 -24 123 -37 169 -24 43 11 127 64 127 79 0 5 -14 18 -30
30 l-31 22 -38 -26 c-42 -29 -76 -33 -124 -12 -31 13 -67 53 -67 76 0 6 56 10
160 10 l160 0 -6 58 c-4 31 -15 73 -25 93 -25 50 -82 97 -126 104 -21 4 -45 8
-53 10 -8 1 -24 1 -35 -2z m70 -97 c28 -12 65 -58 65 -81 0 -3 -47 -5 -105 -5
-93 0 -105 2 -105 18 1 35 53 79 98 81 7 1 28 -5 47 -13z"/>
<path d="M4531 2719 c-18 -4 -46 -16 -61 -28 l-29 -21 -3 23 c-3 19 -9 22 -48
22 l-45 0 0 -215 0 -215 48 -3 47 -3 0 121 c0 82 5 132 14 155 16 36 59 65
101 65 23 0 25 3 25 49 0 28 -3 52 -7 54 -5 2 -23 0 -42 -4z"/>
<path d="M844 2709 c-18 -5 -46 -26 -64 -46 -31 -35 -32 -37 -14 -50 35 -26
60 -25 100 2 31 21 47 26 77 22 44 -6 67 -22 67 -47 0 -22 -34 -36 -123 -51
-85 -14 -128 -42 -146 -96 -13 -35 -13 -46 0 -79 35 -92 171 -123 249 -58 l30
26 0 -26 c0 -24 3 -26 45 -26 l45 0 0 171 c0 198 -8 224 -80 253 -44 17 -136
20 -186 5z m171 -247 c-2 -9 -4 -24 -4 -33 -1 -9 -13 -28 -27 -43 -32 -31
-102 -37 -128 -10 -19 18 -19 17 -4 49 11 24 24 30 118 53 41 11 49 8 45 -16z"/>
<path d="M3148 2699 c-43 -22 -73 -62 -65 -83 3 -8 22 -18 42 -22 28 -5 41 -2
58 14 31 28 62 35 101 22 38 -12 53 -37 34 -56 -7 -7 -47 -20 -88 -29 -84 -18
-124 -38 -154 -78 -26 -35 -27 -101 -2 -139 40 -61 164 -73 225 -22 32 27 43
30 40 12 -4 -33 2 -38 46 -38 l45 0 0 170 c0 190 -6 216 -63 250 -45 28 -167
27 -219 -1z m172 -288 c-13 -32 -36 -47 -83 -56 -28 -6 -39 -3 -56 14 -43 43
-20 74 74 98 l70 19 3 -24 c2 -13 -1 -36 -8 -51z"/>
<path d="M3457 2713 c-3 -4 31 -98 74 -208 43 -110 79 -209 79 -221 0 -26 -40
-64 -67 -64 -16 0 -25 -10 -33 -36 -7 -19 -10 -38 -6 -41 3 -3 24 -7 48 -10
49 -4 82 10 109 47 32 44 208 524 196 532 -16 10 -69 10 -85 0 -7 -5 -32 -68
-56 -141 -41 -125 -52 -150 -59 -140 -1 2 -22 63 -46 134 -25 72 -48 135 -52
141 -10 12 -95 18 -102 7z"/>
<path d="M1667 2532 c-3 -4 -6 -60 -6 -124 l-2 -118 51 0 50 0 -1 98 c-1 84
-15 189 -18 139 0 -10 -5 -16 -10 -13 -5 4 -11 1 -13 -4 -2 -6 -13 -2 -25 9
-12 12 -24 17 -26 13z"/>
<path d="M1817 2516 c-9 -22 4 -86 23 -126 61 -120 220 -147 325 -56 38 32 39
33 18 45 -15 8 -30 8 -48 1 -20 -8 -24 -7 -19 3 4 6 -1 5 -12 -4 -28 -24 -72
-31 -110 -19 -57 19 -108 100 -71 113 6 2 9 7 6 11 -3 3 -18 -6 -33 -20 -14
-15 -29 -24 -33 -21 -3 4 -1 7 5 7 7 0 12 4 12 9 0 5 -12 8 -26 6 -18 -2 -24
2 -20 11 3 8 1 14 -3 14 -5 0 -7 9 -4 20 6 23 -2 27 -10 6z"/>
<path d="M2218 2508 c-2 -14 -13 -25 -28 -29 -23 -6 -22 -7 8 -8 29 -1 32 2
32 29 0 35 -7 40 -12 8z"/>
</g>
</svg>
